<svg id="visual" viewBox="0 0 900 600" width="900" height="600" xmlns="http://www.w3.org/2000/svg" xmlns:xlink="http://www.w3.org/1999/xlink" version="1.1"><rect x="0" y="0" width="900" height="600" fill="#FFF"></rect><path d="M0 94L18.8 94.3C37.7 94.7 75.3 95.3 112.8 92.3C150.3 89.3 187.7 82.7 225.2 85C262.7 87.3 300.3 98.7 337.8 103.8C375.3 109 412.7 108 450.2 105C487.7 102 525.3 97 562.8 93.5C600.3 90 637.7 88 675.2 91.8C712.7 95.7 750.3 105.3 787.8 106.7C825.3 108 862.7 101 881.3 97.5L900 94L900 0L881.3 0C862.7 0 825.3 0 787.8 0C750.3 0 712.7 0 675.2 0C637.7 0 600.3 0 562.8 0C525.3 0 487.7 0 450.2 0C412.7 0 375.3 0 337.8 0C300.3 0 262.7 0 225.2 0C187.7 0 150.3 0 112.8 0C75.3 0 37.7 0 18.8 0L0 0Z" fill="#1ba488" stroke-linecap="round" stroke-linejoin="miter"></path></svg>